<svg width="142" height="95" viewBox="0 0 142 95" fill="none" xmlns="http://www.w3.org/2000/svg">
<path d="M141.955 87.7729H0V94.0589H141.955V87.7729Z" fill="#C20E1A"/>
<path d="M81.9435 39.1582L85.4709 37.078L77.9187 25.3652C75.8384 26.0888 73.8486 26.3601 71.8136 24.8678C70.1856 23.5563 69.6429 21.9735 69.6881 19.848C69.7786 17.9487 70.7735 16.185 72.4015 15.1901C74.2104 14.1952 76.8334 14.557 78.1448 15.4162L85.7423 3.92956L82.034 1.57797C88.1391 -1.18063 95.2843 -0.276168 100.53 3.92956L92.9779 15.4614C91.2595 14.4213 89.134 14.3308 87.3251 15.1901C85.697 16.0945 84.7474 17.9939 84.476 19.7576C84.2951 21.657 85.0187 23.5563 86.4658 24.8226C88.727 26.6315 91.0334 26.0888 92.7518 25.4557L100.259 37.1684C94.199 41.1933 87.8225 41.8716 81.9435 39.1582Z" fill="#222221"/>
<path d="M53.3181 39.2939C49.1575 37.3946 45.7658 34.1385 43.7308 30.0685C40.9722 24.6417 40.7461 17.6321 43.0977 12.2054C45.4493 6.59775 49.6098 2.66335 55.3079 0.80921C60.9607 -0.864039 67.0206 0.311758 71.6333 4.02004L64.0811 15.5519C62.634 14.5118 59.9658 14.3761 58.383 15.2353C56.9359 16.1398 55.941 17.5869 55.6697 19.3054C55.3531 21.0239 55.8053 22.8328 56.8907 24.1895C59.0161 26.4506 61.413 26.3602 63.855 25.4557L71.362 37.1685C64.8499 41.736 58.4735 41.4194 53.3181 39.2939Z" fill="#222221"/>
<path d="M7.46139 65.7495C7.46139 66.3374 7.50661 66.9253 7.59706 67.5132C7.6875 67.9202 7.86839 68.3272 8.18495 68.6438C8.50151 68.9604 8.90852 69.1412 9.36075 69.2317C9.99387 69.3674 10.6722 69.4126 11.3053 69.4126H13.2499H14.7875L17.0486 69.3674L15.9633 75.2916L14.1544 75.3368H12.9334H10.7174C9.08941 75.3368 7.41616 75.2011 5.83336 74.8393C4.61234 74.568 3.48177 74.0253 2.53209 73.2565C1.62763 72.4878 0.994508 71.4476 0.632724 70.3171C0.180495 68.8247 -0.000398155 67.2871 0.0448248 65.7495V62.81C-0.000398155 61.3629 0.225718 59.8706 0.632724 58.4686C0.994508 57.3381 1.62763 56.2979 2.53209 55.4839C3.48177 54.6699 4.61234 54.082 5.83336 53.8107C7.41616 53.4489 9.08941 53.268 10.7174 53.3132H12.7977H14.5162L16.913 53.3585L15.8276 59.2374C14.9232 59.2374 14.1544 59.1922 13.476 59.1922H11.3053C10.627 59.1922 9.99387 59.2374 9.36075 59.3731C8.90852 59.4635 8.50151 59.6897 8.18495 60.0062C7.86839 60.3228 7.6875 60.6846 7.59706 61.1368C7.46139 61.7247 7.41616 62.3126 7.46139 62.9005V65.7495Z" fill="#222221"/>
<path d="M32.7416 71.0855H26.1391L25.0085 75.2912H17.8633L25.2798 53.4033H34.0079L41.4697 75.2912H34.0079L32.7416 71.0855ZM27.6314 65.7492H31.2945L29.4404 59.1919L27.6314 65.7492Z" fill="#222221"/>
<path d="M52.3685 69.2767L49.8812 63.7143V75.2009H43.3691V53.313H50.8762L55.1723 62.9003L59.4685 53.2678H66.8398V75.1557H60.3277V63.6239L57.8405 69.2315L52.3685 69.2767Z" fill="#222221"/>
<path d="M80.4059 52.7255C82.0339 52.6802 83.7072 52.8611 85.29 53.2229C86.511 53.4942 87.6416 54.0821 88.5913 54.8962C89.4957 55.7102 90.1289 56.7503 90.4906 57.8809C90.9429 59.3732 91.1237 60.8656 91.0785 62.4032V66.0662C91.1237 67.6038 90.8976 69.1414 90.4906 70.6337C90.1289 71.7643 89.4957 72.8044 88.5913 73.6185C87.6416 74.4325 86.511 75.0204 85.29 75.2917C82.0792 75.9701 78.7327 75.9701 75.5218 75.2917C74.3008 75.0204 73.1702 74.4325 72.2206 73.6185C71.3161 72.8044 70.683 71.7643 70.3212 70.6337C69.869 69.1414 69.6881 67.6038 69.7333 66.0662V62.4484C69.6881 60.9108 69.9142 59.3732 70.3212 57.9261C70.683 56.7955 71.3161 55.7554 72.2206 54.9414C73.1702 54.1274 74.3008 53.5395 75.5218 53.2681C77.1046 52.8611 78.7779 52.6802 80.4059 52.7255ZM80.4059 69.9102C80.9486 69.9102 81.5365 69.865 82.0792 69.7293C82.4862 69.6388 82.8027 69.4127 83.0741 69.1414C83.3454 68.7796 83.5263 68.4178 83.5715 67.9656C83.662 67.3325 83.7072 66.6993 83.7072 66.0662V62.4484C83.7072 61.8153 83.662 61.1821 83.5715 60.549C83.5263 60.142 83.3454 59.735 83.0741 59.3732C82.8027 59.0567 82.4409 58.8758 82.0792 58.7853C80.9938 58.5592 79.8632 58.5592 78.7779 58.7853C78.3709 58.8758 78.0543 59.1019 77.783 59.3732C77.5116 59.735 77.3308 60.0968 77.2855 60.549C77.1951 61.1821 77.1499 61.8153 77.1499 62.4484V66.1114C77.1499 66.7446 77.1951 67.3777 77.2855 68.0108C77.3308 68.4178 77.5116 68.8248 77.783 69.1866C78.0543 69.5032 78.4161 69.6841 78.7779 69.7745C79.3206 69.865 79.8632 69.9102 80.4059 69.9102Z" fill="#222221"/>
<path d="M93.0234 75.2462V70.4525L102.475 58.8755H93.0234L94.0183 53.2678H111.294V58.1519L101.887 69.5933H111.972L110.977 75.2009L93.0234 75.2462Z" fill="#222221"/>
<path d="M113.555 75.2462V70.4525L123.006 58.8755H113.555L114.55 53.2678H131.87V58.1519L122.464 69.5933H132.548L131.553 75.2009L113.555 75.2462Z" fill="#222221"/>
<path d="M142 75.2462H134.854V53.3583H142V75.2462Z" fill="#222221"/>
</svg>
