<svg width="210" height="36" viewBox="0 0 210 36" fill="none" xmlns="http://www.w3.org/2000/svg">
<g clip-path="url(#clip0_417_3528)">
<path d="M12.8755 0C14.976 0 18.0159 0.409817 21.9922 1.23042V7.64561C19.0337 6.39289 16.2874 5.76782 13.75 5.76782C10.1771 5.76782 8.39069 6.80788 8.39069 8.89219C8.39069 9.67143 8.75078 10.3068 9.47127 10.7994C10.0704 11.1982 11.7218 12.0402 14.4214 13.3284C18.3083 15.1584 20.8961 16.7492 22.1855 18.1021C23.7155 19.7071 24.4818 21.7837 24.4818 24.3289C24.4818 27.9878 22.9807 30.7786 19.9801 32.7017C17.5494 34.2608 14.3973 35.0374 10.5256 35.0374C7.25644 35.0374 3.96224 34.6296 0.645484 33.809V27.14C4.22629 28.3346 7.39487 28.9322 10.1512 28.9322C13.957 28.9322 15.86 27.866 15.86 25.7348C15.86 24.9404 15.5831 24.2729 15.0279 23.7322C14.4601 23.1586 13.0063 22.3638 10.6695 21.3454C6.47741 19.5184 3.74363 17.9599 2.47217 16.6713C0.823854 14.9696 0 12.8242 0 10.2315C0 6.89288 1.20072 4.34801 3.60032 2.5995C5.9734 0.865852 9.06361 0 12.8755 0ZM197.573 0C199.716 0 202.494 0.360691 205.9 1.08563L206.687 1.23042V7.64561C203.728 6.39289 200.974 5.76782 198.423 5.76782C194.863 5.76782 193.088 6.80788 193.088 8.89219C193.088 9.67143 193.446 10.3068 194.165 10.7994C194.736 11.183 196.394 12.0253 199.139 13.3284C202.997 15.1584 205.579 16.7492 206.879 18.1021C208.412 19.7071 209.176 21.7837 209.176 24.3289C209.176 27.9878 207.684 30.7786 204.698 32.7017C202.253 34.2608 199.093 35.0374 195.222 35.0374C191.95 35.0374 188.654 34.6296 185.34 33.809V27.14C188.891 28.3346 192.059 28.9322 194.848 28.9322C198.653 28.9322 200.554 27.866 200.554 25.7348C200.554 24.9404 200.285 24.2729 199.748 23.7322C199.177 23.1586 197.718 22.3638 195.367 21.3454C191.187 19.5335 188.451 17.9757 187.167 16.6713C185.52 14.9848 184.697 12.8314 184.697 10.2086C184.697 6.88448 185.895 4.34801 188.297 2.5995C190.667 0.865852 193.76 0 197.573 0ZM87.1015 0.586898L95.1168 22.1634L103.333 0.586898H114.292V34.3551H105.855V10.4464L96.5124 34.698H90.9963L81.8336 10.4464V34.3551H75.5642V0.586898H87.1015ZM38.4053 0.586769V34.355H29.507V0.586769H38.4053ZM69.3882 0.586898V6.69473H55.1421V14.3197H67.5426V19.8906H55.1421V27.9044H69.7553V34.3551H46.566V0.586898H69.3882ZM145.276 0.586898V6.69473H131.031V14.3197H143.431V19.8906H131.031V27.9044H145.645V34.3551H122.454V0.586898H145.276ZM161.814 0.586898L172.755 23.1921V0.586898H179.023V34.3551H169.003L157.771 11.4458V34.3551H151.5V0.586898H161.814Z" fill="#171717"/>
<mask id="mask0_417_3528" style="mask-type:luminance" maskUnits="userSpaceOnUse" x="0" y="0" width="210" height="36">
<path d="M12.8755 0C14.976 0 18.0159 0.409817 21.9922 1.23042V7.64561C19.0337 6.39289 16.2874 5.76782 13.75 5.76782C10.1771 5.76782 8.39069 6.80788 8.39069 8.89219C8.39069 9.67143 8.75078 10.3068 9.47127 10.7994C10.0704 11.1982 11.7218 12.0402 14.4214 13.3284C18.3083 15.1584 20.8961 16.7492 22.1855 18.1021C23.7155 19.7071 24.4818 21.7837 24.4818 24.3289C24.4818 27.9878 22.9807 30.7786 19.9801 32.7017C17.5494 34.2608 14.3973 35.0374 10.5256 35.0374C7.25644 35.0374 3.96224 34.6296 0.645484 33.809V27.14C4.22629 28.3346 7.39487 28.9322 10.1512 28.9322C13.957 28.9322 15.86 27.866 15.86 25.7348C15.86 24.9404 15.5831 24.2729 15.0279 23.7322C14.4601 23.1586 13.0063 22.3638 10.6695 21.3454C6.47741 19.5184 3.74363 17.9599 2.47217 16.6713C0.823854 14.9696 0 12.8242 0 10.2315C0 6.89288 1.20072 4.34801 3.60032 2.5995C5.9734 0.865852 9.06361 0 12.8755 0ZM197.573 0C199.716 0 202.494 0.360691 205.9 1.08563L206.687 1.23042V7.64561C203.728 6.39289 200.974 5.76782 198.423 5.76782C194.863 5.76782 193.088 6.80788 193.088 8.89219C193.088 9.67143 193.446 10.3068 194.165 10.7994C194.736 11.183 196.394 12.0253 199.139 13.3284C202.997 15.1584 205.579 16.7492 206.879 18.1021C208.412 19.7071 209.176 21.7837 209.176 24.3289C209.176 27.9878 207.684 30.7786 204.698 32.7017C202.253 34.2608 199.093 35.0374 195.222 35.0374C191.95 35.0374 188.654 34.6296 185.34 33.809V27.14C188.891 28.3346 192.059 28.9322 194.848 28.9322C198.653 28.9322 200.554 27.866 200.554 25.7348C200.554 24.9404 200.285 24.2729 199.748 23.7322C199.177 23.1586 197.718 22.3638 195.367 21.3454C191.187 19.5335 188.451 17.9757 187.167 16.6713C185.52 14.9848 184.697 12.8314 184.697 10.2086C184.697 6.88448 185.895 4.34801 188.297 2.5995C190.667 0.865852 193.76 0 197.573 0ZM87.1015 0.586898L95.1168 22.1634L103.333 0.586898H114.292V34.3551H105.855V10.4464L96.5124 34.698H90.9963L81.8336 10.4464V34.3551H75.5642V0.586898H87.1015ZM38.4053 0.586769V34.355H29.507V0.586769H38.4053ZM69.3882 0.586898V6.69473H55.1421V14.3197H67.5426V19.8906H55.1421V27.9044H69.7553V34.3551H46.566V0.586898H69.3882ZM145.276 0.586898V6.69473H131.031V14.3197H143.431V19.8906H131.031V27.9044H145.645V34.3551H122.454V0.586898H145.276ZM161.814 0.586898L172.755 23.1921V0.586898H179.023V34.3551H169.003L157.771 11.4458V34.3551H151.5V0.586898H161.814Z" fill="white"/>
</mask>
<g mask="url(#mask0_417_3528)">
<path d="M210 0H0V36H210V0Z" fill="black"/>
</g>
</g>
<defs>
<clipPath id="clip0_417_3528">
<rect width="210" height="36" fill="white"/>
</clipPath>
</defs>
</svg>
