<svg width="150" height="59" viewBox="0 0 150 59" fill="none" xmlns="http://www.w3.org/2000/svg">
<g clip-path="url(#clip0_59_946)">
<path d="M0 18.6667V37.3334H9.2H18.5333L18.9333 30.4L19.3333 23.6L24 30.4L28.6667 37.3334H39.7333H50.9333L48.4 34.1334C47.0667 32.4 43.7333 28.2667 40.8 24.8L35.7333 18.6667L41.2 12.2667C44.1333 8.66671 47.4667 4.93337 48.6667 4.00004C52.4 0.800037 50.6667 3.8147e-05 40 3.8147e-05H29.3333L24.4 6.80004L19.3333 13.4667L18.9333 6.80004L18.5333 3.8147e-05H9.2H0V18.6667Z" fill="#2D302D"/>
<path d="M54.2666 0.933372C52.4 2.66671 53.4666 4.00004 56.6666 4.00004C58.5333 4.00004 60 4.53337 60 5.33337C60 6.00004 57.7333 6.66671 54.8 6.66671C51.8666 6.66671 48.9333 7.46671 48 8.66671C46.5333 10.4 47.2 10.6667 53.2 10.6667C56.9333 10.6667 60 11.2 60 12C60 12.8 56.5333 13.3334 52.1333 13.3334C46.8 13.3334 43.7333 14 42.6666 15.3334C41.2 17.0667 42.2666 17.3334 50.6666 17.3334C57.7333 17.3334 60.1333 17.7334 59.6 18.9334C59.2 20.1334 56.2666 20.6667 50.2666 20.5334C43.3333 20.4 41.7333 20.6667 42.2666 22.1334C42.8 23.4667 45.4666 24 51.4666 24C58.1333 24 60 24.4 60 26C60 27.4667 58.4 28 53.8666 28C50.2666 28 48.1333 28.5334 48.6666 29.3334C49.0666 30.1334 51.8666 30.6667 54.8 30.6667C58.5333 30.6667 60 31.2 60 32.6667C60 33.8667 58.6666 34.6667 56.5333 34.6667C54.6666 34.6667 53.4666 35.2 54 36C54.4 36.6667 58.8 37.3334 63.7333 37.3334H72.6666L78.6666 29.2L84.6666 21.2L85.0667 29.3334L85.4666 37.3334H94.6666H104V18.6667V3.8147e-05H94.4H84.6666L79.3333 7.73337L74 15.3334L73.6 7.60004L73.2 3.8147e-05H64.1333C59.2 3.8147e-05 54.6666 0.40004 54.2666 0.933372Z" fill="#C42329"/>
<path d="M106.667 7.20004V14.5334L112.4 14.9334L118 15.3334L118.4 26.2667L118.8 37.3334H128H137.333V26V14.6667H143.333H149.333V7.33337V3.8147e-05H128H106.667V7.20004Z" fill="#2D302D"/>
<path d="M4.59829 45.419C3.97214 45.419 3.35252 45.5079 2.73941 45.6857C2.1263 45.8508 1.52624 46.054 0.939226 46.2952L0 43.9714C0.691375 43.6794 1.42188 43.4508 2.19153 43.2857C2.96117 43.1079 3.78299 43.019 4.657 43.019C5.68754 43.019 6.60067 43.1778 7.39641 43.4952C8.20518 43.8 8.88352 44.2571 9.4314 44.8667C9.99232 45.4635 10.4163 46.2 10.7033 47.0762C11.0033 47.9397 11.1533 48.9238 11.1533 50.0286C11.1533 51.4254 10.912 52.6508 10.4293 53.7048C9.94667 54.746 9.20311 55.5587 8.19866 56.1429C7.20726 56.7143 5.93539 57 4.38306 57C3.58732 57 2.86334 56.9429 2.2111 56.8286C1.5719 56.7143 0.919659 56.5365 0.254374 56.2952V53.8762C0.997928 54.1048 1.68278 54.2825 2.30893 54.4095C2.94813 54.5365 3.5808 54.6 4.20695 54.6C4.80701 54.6 5.33533 54.5302 5.7919 54.3905C6.26151 54.2381 6.65285 54.0222 6.96593 53.7429C7.29205 53.4508 7.54642 53.0889 7.72905 52.6571C7.91168 52.2127 8.01604 51.7048 8.04212 51.1333H1.97629V48.7714H8.02256C8.00951 48.2381 7.9182 47.7683 7.74862 47.3619C7.57903 46.9429 7.34423 46.5937 7.0442 46.3143C6.74417 46.0222 6.38543 45.8 5.968 45.6476C5.56361 45.4952 5.10704 45.419 4.59829 45.419Z" fill="#2D302D"/>
<path d="M39.1948 56.8095H36.2402V50.9429H30.7026V56.8095H27.748V43.2095H30.7026V48.5429H36.2402V43.2095H39.1948V56.8095Z" fill="#2D302D"/>
<path d="M64.4492 56.8095H56.4071V43.2095H64.4492V45.5714H59.3617V48.5619H64.097V50.9238H59.3617V54.4286H64.4492V56.8095Z" fill="#2D302D"/>
<path d="M85.5147 43.2095C87.3149 43.2095 88.6259 43.5905 89.4477 44.3524C90.2826 45.1016 90.7 46.1365 90.7 47.4571C90.7 48.054 90.6087 48.6254 90.426 49.1714C90.2434 49.7048 89.9369 50.1873 89.5064 50.619C89.089 51.0381 88.5345 51.3683 87.8432 51.6095C87.1518 51.8508 86.2974 51.9714 85.2799 51.9714H84.008V56.8095H81.0534V43.2095H85.5147ZM85.3581 45.5714H84.008V49.6095H84.9864C85.5473 49.6095 86.0299 49.5397 86.4343 49.4C86.8387 49.2603 87.1518 49.0381 87.3736 48.7333C87.5953 48.4286 87.7062 48.0349 87.7062 47.5524C87.7062 46.8794 87.5171 46.3841 87.1388 46.0667C86.7605 45.7365 86.1669 45.5714 85.3581 45.5714Z" fill="#2D302D"/>
<path d="M115.862 43.2095V45.5905H109.992V56.8095H107.037V43.2095H115.862Z" fill="#2D302D"/>
<path d="M144 49.9905C144 51.0444 143.863 52.0032 143.589 52.8667C143.328 53.7175 142.924 54.454 142.376 55.0762C141.841 55.6984 141.15 56.1746 140.302 56.5048C139.467 56.8349 138.482 57 137.347 57C136.212 57 135.221 56.8349 134.373 56.5048C133.538 56.1619 132.847 55.6857 132.299 55.0762C131.764 54.454 131.36 53.7111 131.086 52.8476C130.825 51.9841 130.694 51.0254 130.694 49.9714C130.694 48.5619 130.929 47.3365 131.399 46.2952C131.881 45.254 132.612 44.4476 133.59 43.8762C134.582 43.2921 135.84 43 137.367 43C138.88 43 140.126 43.2921 141.104 43.8762C142.082 44.4476 142.806 45.2603 143.276 46.3143C143.759 47.3556 144 48.581 144 49.9905ZM133.805 49.9905C133.805 50.9429 133.929 51.7619 134.177 52.4476C134.425 53.1333 134.81 53.6603 135.332 54.0286C135.854 54.3968 136.525 54.581 137.347 54.581C138.195 54.581 138.873 54.3968 139.382 54.0286C139.904 53.6603 140.282 53.1333 140.517 52.4476C140.765 51.7619 140.889 50.9429 140.889 49.9905C140.889 48.5556 140.615 47.4317 140.067 46.619C139.519 45.8063 138.619 45.4 137.367 45.4C136.532 45.4 135.854 45.5841 135.332 45.9524C134.81 46.3206 134.425 46.8476 134.177 47.5333C133.929 48.219 133.805 49.0381 133.805 49.9905Z" fill="#2D302D"/>
</g>
<defs>
<clipPath id="clip0_59_946">
<rect width="149.333" height="58.6667" fill="white"/>
</clipPath>
</defs>
</svg>
