<svg width="85" height="57" viewBox="0 0 85 57" fill="none" xmlns="http://www.w3.org/2000/svg">
<path d="M84.973 53.2007H0V56.9634H84.973V53.2007Z" fill="#C20E1A"/>
<path d="M49.0509 24.1002L51.1624 22.855L46.6417 15.8438C45.3965 16.277 44.2054 16.4394 42.9872 15.5461C42.0127 14.761 41.6879 13.8136 41.7149 12.5413C41.7691 11.4043 42.3646 10.3486 43.3391 9.75306C44.4219 9.15752 45.992 9.37408 46.777 9.88841L51.3248 3.01261L49.1051 1.60496C52.7595 -0.0463137 57.0366 0.495088 60.1767 3.01261L55.656 9.91548C54.6274 9.29287 53.3551 9.23873 52.2723 9.75306C51.2977 10.2945 50.7293 11.4314 50.5668 12.4871C50.4586 13.6241 50.8917 14.761 51.7579 15.519C53.1114 16.6018 54.492 16.277 55.5207 15.898L60.0143 22.9091C56.3869 25.3184 52.57 25.7244 49.0509 24.1002Z" fill="#222221"/>
<path d="M31.9156 24.1815C29.4251 23.0445 27.3949 21.0955 26.1767 18.6592C24.5254 15.4108 24.3901 11.2149 25.7977 7.96649C27.2054 4.6098 29.6958 2.2547 33.1067 1.14483C36.4904 0.143235 40.1178 0.847057 42.879 3.06681L38.3583 9.96968C37.492 9.34707 35.8949 9.26586 34.9474 9.78019C34.0812 10.3216 33.4857 11.1878 33.3232 12.2165C33.1337 13.2452 33.4044 14.328 34.0541 15.1401C35.3264 16.4936 36.7611 16.4394 38.2229 15.898L42.7166 22.9092C38.8185 25.6433 35.0016 25.4538 31.9156 24.1815Z" fill="#222221"/>
<path d="M4.46648 40.0175C4.46648 40.3694 4.49355 40.7213 4.54769 41.0732C4.60183 41.3168 4.71011 41.5605 4.8996 41.7499C5.08909 41.9394 5.33272 42.0477 5.60342 42.1019C5.9824 42.1831 6.38846 42.2101 6.76744 42.2101H7.93145H8.85183L10.2053 42.1831L9.55566 45.7292L8.47285 45.7563H7.74196H6.41553C5.441 45.7563 4.43941 45.6751 3.49196 45.4585C2.76106 45.2961 2.08431 44.9713 1.51584 44.5111C0.974436 44.0509 0.595456 43.4283 0.378895 42.7515C0.108194 41.8582 -8.70582e-05 40.9378 0.026983 40.0175V38.2579C-8.70582e-05 37.3917 0.135264 36.4983 0.378895 35.6592C0.595456 34.9824 0.974436 34.3598 1.51584 33.8725C2.08431 33.3853 2.76106 33.0334 3.49196 32.871C4.43941 32.6544 5.441 32.5461 6.41553 32.5732H7.66075H8.68941L10.1241 32.6003L9.47445 36.1194C8.93304 36.1194 8.47285 36.0923 8.0668 36.0923H6.76744C6.36139 36.0923 5.9824 36.1194 5.60342 36.2006C5.33272 36.2547 5.08909 36.3901 4.8996 36.5796C4.71011 36.769 4.60183 36.9856 4.54769 37.2563C4.46648 37.6082 4.43941 37.9601 4.46648 38.312V40.0175Z" fill="#222221"/>
<path d="M19.5989 43.2116H15.6467L14.9699 45.7291H10.6929L15.1324 32.6272H20.3569L24.8235 45.7291H20.3569L19.5989 43.2116ZM16.54 40.0173H18.7327L17.6228 36.0922L16.54 40.0173Z" fill="#222221"/>
<path d="M31.3469 42.129L29.8581 38.7993V45.6751H25.96V32.5732H30.4536L33.0253 38.3121L35.5969 32.5461H40.0093V45.6481H36.1112V38.7452L34.6224 42.1019L31.3469 42.129Z" fill="#222221"/>
<path d="M48.1304 32.2214C49.1049 32.1943 50.1065 32.3026 51.0539 32.5191C51.7848 32.6816 52.4616 33.0335 53.0301 33.5207C53.5715 34.008 53.9504 34.6306 54.167 35.3074C54.4377 36.2007 54.546 37.094 54.5189 38.0144V40.2071C54.546 41.1274 54.4106 42.0478 54.167 42.9411C53.9504 43.6179 53.5715 44.2405 53.0301 44.7278C52.4616 45.215 51.7848 45.5669 51.0539 45.7294C49.132 46.1354 47.1288 46.1354 45.2068 45.7294C44.4759 45.5669 43.7992 45.215 43.2307 44.7278C42.6893 44.2405 42.3103 43.6179 42.0937 42.9411C41.823 42.0478 41.7148 41.1274 41.7418 40.2071V38.0414C41.7148 37.1211 41.8501 36.2007 42.0937 35.3344C42.3103 34.6577 42.6893 34.0351 43.2307 33.5478C43.7992 33.0605 44.4759 32.7086 45.2068 32.5462C46.1543 32.3026 47.1558 32.1943 48.1304 32.2214ZM48.1304 42.508C48.4552 42.508 48.8071 42.4809 49.132 42.3997C49.3756 42.3456 49.5651 42.2102 49.7275 42.0478C49.8899 41.8313 49.9982 41.6147 50.0253 41.344C50.0794 40.965 50.1065 40.586 50.1065 40.2071V38.0414C50.1065 37.6625 50.0794 37.2835 50.0253 36.9045C49.9982 36.6609 49.8899 36.4172 49.7275 36.2007C49.5651 36.0112 49.3485 35.9029 49.132 35.8488C48.4823 35.7134 47.8055 35.7134 47.1558 35.8488C46.9122 35.9029 46.7227 36.0383 46.5603 36.2007C46.3979 36.4172 46.2896 36.6338 46.2625 36.9045C46.2084 37.2835 46.1813 37.6625 46.1813 38.0414V40.2341C46.1813 40.6131 46.2084 40.9921 46.2625 41.3711C46.2896 41.6147 46.3979 41.8583 46.5603 42.0749C46.7227 42.2644 46.9393 42.3727 47.1558 42.4268C47.4807 42.4809 47.8055 42.508 48.1304 42.508Z" fill="#222221"/>
<path d="M55.6831 45.7022V42.8328L61.3408 35.9028H55.6831L56.2786 32.5461H66.6194V35.4697L60.9888 42.3184H67.0255L66.4299 45.6751L55.6831 45.7022Z" fill="#222221"/>
<path d="M67.9731 45.7022V42.8328L73.6308 35.9028H67.9731L68.5687 32.5461H78.9365V35.4697L73.3059 42.3184H79.3426L78.747 45.6751L67.9731 45.7022Z" fill="#222221"/>
<path d="M85.0002 45.7023H80.7231V32.6003H85.0002V45.7023Z" fill="#222221"/>
</svg>
