<svg width="21" height="18" viewBox="0 0 21 18" fill="none" xmlns="http://www.w3.org/2000/svg">
<path fill-rule="evenodd" clip-rule="evenodd" d="M16.9886 5.23922L14.0583 0.355504C13.8503 0.00875982 13.4 -0.103566 13.0533 0.104481C12.7065 0.312527 12.5942 0.762806 12.8022 1.10955L15.7325 5.99327C15.9405 6.34001 16.3908 6.45234 16.7375 6.24429C17.0843 6.03625 17.1966 5.58597 16.9886 5.23922Z" fill="#222728"/>
<path fill-rule="evenodd" clip-rule="evenodd" d="M5.26731 5.99327L8.19754 1.10955C8.40559 0.762806 8.29326 0.312527 7.94652 0.104481C7.59978 -0.103566 7.1495 0.00875982 6.94145 0.355504L4.01122 5.23922C3.80317 5.58597 3.9155 6.03625 4.26224 6.24429C4.60899 6.45234 5.05927 6.34001 5.26731 5.99327Z" fill="#222728"/>
<path fill-rule="evenodd" clip-rule="evenodd" d="M20.0133 5.73453C20.0485 5.52258 19.9879 5.30574 19.8492 5.14165C19.7096 4.97853 19.5054 4.88379 19.2905 4.88379H1.70915C1.49427 4.88379 1.29013 4.97853 1.15046 5.14165C1.01176 5.30574 0.951199 5.52258 0.986362 5.73453C0.986362 5.73453 1.98459 11.8333 2.4759 14.8407C2.68883 16.1398 3.81111 17.0931 5.12678 17.0931H15.8729C17.1886 17.0931 18.3109 16.1398 18.5238 14.8407L20.0133 5.73453ZM9.76729 9.03495V12.9419C9.76729 13.3463 10.0955 13.6745 10.4999 13.6745C10.9042 13.6745 11.2324 13.3463 11.2324 12.9419V9.03495C11.2324 8.63058 10.9042 8.30239 10.4999 8.30239C10.0955 8.30239 9.76729 8.63058 9.76729 9.03495ZM13.6743 9.03495V12.9419C13.6743 13.3463 14.0025 13.6745 14.4068 13.6745C14.8112 13.6745 15.1394 13.3463 15.1394 12.9419V9.03495C15.1394 8.63058 14.8112 8.30239 14.4068 8.30239C14.0025 8.30239 13.6743 8.63058 13.6743 9.03495ZM5.86032 9.03495V12.9419C5.86032 13.3463 6.1885 13.6745 6.59287 13.6745C6.99725 13.6745 7.32543 13.3463 7.32543 12.9419V9.03495C7.32543 8.63058 6.99725 8.30239 6.59287 8.30239C6.1885 8.30239 5.86032 8.63058 5.86032 9.03495Z" fill="#222728"/>
<path fill-rule="evenodd" clip-rule="evenodd" d="M20.2674 4.88379H0.732558C0.328186 4.88379 0 5.21198 0 5.61635C0 6.02072 0.328186 6.34891 0.732558 6.34891H20.2674C20.6718 6.34891 21 6.02072 21 5.61635C21 5.21198 20.6718 4.88379 20.2674 4.88379Z" fill="#222728"/>
</svg>
