<svg width="37" height="37" viewBox="0 0 37 37" fill="none" xmlns="http://www.w3.org/2000/svg">
<path d="M36.4212 15.8623L34.0863 15.57C33.9373 14.7804 33.7285 14.0032 33.4617 13.2453L35.3393 11.8232C35.4677 11.7261 35.5563 11.5854 35.5882 11.4276C35.6202 11.2698 35.5934 11.1058 35.5129 10.9663L33.5307 7.53366C33.4499 7.39445 33.3212 7.28939 33.1687 7.23811C33.0161 7.18683 32.8501 7.19282 32.7016 7.25497L30.5285 8.17185C30.0052 7.56329 29.4368 6.99495 28.8283 6.47163L29.7452 4.29854C29.8076 4.1501 29.8137 3.98399 29.7624 3.83135C29.7111 3.67871 29.6059 3.55002 29.4665 3.46941L26.0338 1.48727C25.8942 1.40727 25.7304 1.38077 25.5727 1.41271C25.4151 1.44465 25.2744 1.53284 25.177 1.66084L23.7547 3.53846C22.9968 3.27158 22.2196 3.06274 21.43 2.91375L21.1377 0.578786C21.1177 0.419029 21.04 0.27208 20.9193 0.165516C20.7986 0.058952 20.6432 9.8445e-05 20.4821 0H16.5179C16.3568 1.324e-05 16.2013 0.0588369 16.0806 0.165417C15.9599 0.271997 15.8823 0.418994 15.8623 0.578786L15.5703 2.91375C14.7806 3.06257 14.0033 3.27136 13.2453 3.53832L11.8238 1.66084C11.7264 1.53267 11.5857 1.44436 11.4279 1.41241C11.2702 1.38047 11.1062 1.40708 10.9666 1.48727L7.5334 3.46941C7.3939 3.54993 7.28863 3.67863 7.23735 3.83131C7.18608 3.984 7.19235 4.15015 7.25497 4.29854L8.17185 6.47163C7.56317 6.99481 6.99481 7.56317 6.47163 8.17185L4.29854 7.25497C4.1501 7.19252 3.98398 7.18637 3.83133 7.23767C3.67867 7.28898 3.54999 7.39423 3.46941 7.53366L1.48727 10.9663C1.40673 11.1058 1.37993 11.2698 1.41189 11.4276C1.44386 11.5854 1.53239 11.7261 1.66084 11.8232L3.53879 13.2453C3.27171 14.0032 3.06276 14.7803 2.91375 15.57L0.578654 15.8623C0.418886 15.8823 0.27192 15.9599 0.165367 16.0807C0.0588145 16.2014 9.21076e-06 16.3568 0 16.5179V20.4821C1.324e-05 20.6432 0.0588369 20.7987 0.165417 20.9194C0.271997 21.0401 0.418994 21.1177 0.578786 21.1377L2.91388 21.43C3.06285 22.2197 3.27176 22.9968 3.53879 23.7547L1.66084 25.1768C1.53239 25.2739 1.44386 25.4146 1.41189 25.5724C1.37993 25.7302 1.40673 25.8942 1.48727 26.0337L3.46941 29.4663C3.55017 29.6056 3.67887 29.7107 3.83145 29.7619C3.98403 29.8132 4.15007 29.8072 4.29854 29.745L6.47163 28.8282C6.99481 29.4368 7.56317 30.0052 8.17185 30.5284L7.25497 32.7015C7.19235 32.8498 7.18608 33.016 7.23735 33.1687C7.28863 33.3214 7.3939 33.4501 7.5334 33.5306L10.9666 35.5127C11.1061 35.5934 11.2702 35.6203 11.4281 35.5883C11.586 35.5563 11.7267 35.4677 11.8238 35.3392L13.2453 33.4615C14.0033 33.7285 14.7806 33.9373 15.5703 34.0861L15.8623 36.4212C15.8823 36.581 15.9599 36.728 16.0806 36.8346C16.2013 36.9412 16.3568 37 16.5179 37H20.4821C20.6432 36.9999 20.7986 36.941 20.9193 36.8345C21.04 36.7279 21.1177 36.581 21.1377 36.4212L21.43 34.0861C22.2196 33.9372 22.9968 33.7284 23.7547 33.4615L25.1768 35.3392C25.274 35.4675 25.4147 35.556 25.5724 35.5879C25.7302 35.6199 25.8942 35.5931 26.0337 35.5127L29.4663 33.5306C29.6057 33.45 29.711 33.3213 29.7623 33.1687C29.8136 33.016 29.8074 32.8499 29.745 32.7015L28.8282 30.5284C29.4367 30.005 30.005 29.4367 30.5284 28.8282L32.7015 29.745C32.8499 29.8075 33.016 29.8137 33.1687 29.7624C33.3214 29.7111 33.4501 29.6058 33.5306 29.4663L35.5127 26.0337C35.5933 25.8942 35.6201 25.7302 35.5881 25.5724C35.5561 25.4146 35.4676 25.2739 35.3392 25.1768L33.4615 23.7547C33.7284 22.9968 33.9372 22.2196 34.0861 21.43L36.4212 21.1377C36.581 21.1177 36.7279 21.04 36.8345 20.9193C36.941 20.7986 36.9999 20.6432 37 20.4821V16.5179C36.9999 16.3568 36.941 16.2014 36.8345 16.0807C36.7279 15.96 36.581 15.8823 36.4212 15.8623ZM18.5 28.4107C16.5398 28.4107 14.6237 27.8295 12.9939 26.7405C11.3641 25.6515 10.0938 24.1036 9.34369 22.2927C8.59358 20.4817 8.39731 18.489 8.77972 16.5665C9.16212 14.644 10.106 12.8781 11.4921 11.4921C12.8781 10.106 14.644 9.16212 16.5665 8.77972C18.489 8.39731 20.4817 8.59358 22.2927 9.34369C24.1036 10.0938 25.6515 11.3641 26.7405 12.9939C27.8295 14.6237 28.4107 16.5398 28.4107 18.5C28.4078 21.1276 27.3627 23.6467 25.5047 25.5047C23.6467 27.3627 21.1276 28.4078 18.5 28.4107Z" fill="#E30613"/>
<path d="M18.5001 19.1607C18.865 19.1607 19.1608 18.8649 19.1608 18.5C19.1608 18.1351 18.865 17.8393 18.5001 17.8393C18.1352 17.8393 17.8394 18.1351 17.8394 18.5C17.8394 18.8649 18.1352 19.1607 18.5001 19.1607Z" fill="#E30613"/>
<path d="M14.5356 23.125V25.1071C14.5356 25.2824 14.6053 25.4504 14.7292 25.5743C14.8531 25.6982 15.0211 25.7679 15.1964 25.7679H21.8035C21.9787 25.7679 22.1468 25.6982 22.2707 25.5743C22.3946 25.4504 22.4642 25.2824 22.4642 25.1071V23.125H14.5356Z" fill="#E30613"/>
<path d="M14.1273 21.8036H22.8728L23.7161 20.117C23.7619 20.0252 23.7858 19.924 23.7858 19.8214C23.7858 19.7188 23.7619 19.6177 23.7161 19.5259L19.7518 11.5973C19.6969 11.4876 19.6126 11.3953 19.5082 11.3308C19.4038 11.2663 19.2835 11.2321 19.1608 11.2321V16.6396C19.6016 16.7955 19.9732 17.1022 20.2098 17.5055C20.4464 17.9088 20.5327 18.3827 20.4537 18.8436C20.3746 19.3044 20.1352 19.7225 19.7777 20.0239C19.4202 20.3253 18.9677 20.4905 18.5001 20.4905C18.0325 20.4905 17.58 20.3253 17.2225 20.0239C16.865 19.7225 16.6256 19.3044 16.5465 18.8436C16.4674 18.3827 16.5538 17.9088 16.7904 17.5055C17.027 17.1022 17.3985 16.7955 17.8394 16.6396V11.2321C17.7167 11.2321 17.5964 11.2663 17.492 11.3308C17.3876 11.3953 17.3032 11.4876 17.2484 11.5973L13.2841 19.5259C13.2382 19.6177 13.2144 19.7188 13.2144 19.8214C13.2144 19.924 13.2382 20.0252 13.2841 20.117L14.1273 21.8036Z" fill="#E30613"/>
</svg>
