<svg width="37" height="37" viewBox="0 0 37 37" fill="none" xmlns="http://www.w3.org/2000/svg">
<g clip-path="url(#clip0_114_2174)">
<path fill-rule="evenodd" clip-rule="evenodd" d="M4.10953 23.9445C2.80359 22.6428 1.76713 21.0963 1.05944 19.3937C0.351744 17.691 -0.0132849 15.8655 -0.014766 14.0216C-0.016247 12.1777 0.345849 10.3516 1.0508 8.64779C1.75576 6.94397 2.78974 5.39588 4.09359 4.09206C5.39744 2.78825 6.94557 1.75432 8.6494 1.04941C10.3532 0.344506 12.1793 -0.0175364 14.0232 -0.0160016C15.8671 -0.0144668 17.6926 0.350615 19.3953 1.05836C21.0979 1.7661 22.6443 2.80261 23.946 4.10859C25.252 5.4103 26.2884 6.95674 26.9961 8.65942C27.7038 10.3621 28.0688 12.1876 28.0703 14.0315C28.0718 15.8754 27.7097 17.7015 27.0047 19.4053C26.2998 21.1091 25.2658 22.6572 23.962 23.961C22.6581 25.2648 21.11 26.2988 19.4061 27.0037C17.7023 27.7086 15.8762 28.0706 14.0323 28.0691C12.1884 28.0675 10.3629 27.7025 8.66027 26.9947C6.95762 26.287 5.41121 25.2505 4.10953 23.9445ZM36.2073 36.2058C36.7141 35.6952 36.9985 35.005 36.9985 34.2857C36.9985 33.5663 36.7141 32.8761 36.2073 32.3655L27.0572 23.2154C26.5306 23.9575 25.9424 24.654 25.2988 25.2973C24.6558 25.9415 23.9592 26.5297 23.2163 27.0557L32.3665 36.2058C32.8762 36.7144 33.5669 37 34.2869 37C35.0069 37 35.6976 36.7144 36.2073 36.2058ZM19.3436 11.3158C19.4223 11.2171 19.4806 11.1037 19.5153 10.9823C19.55 10.8609 19.5603 10.7338 19.5457 10.6084C19.531 10.483 19.4917 10.3617 19.4299 10.2516C19.3682 10.1415 19.2852 10.0447 19.1859 9.96674C19.0865 9.88882 18.9727 9.83134 18.8511 9.7976C18.7294 9.76387 18.6022 9.75456 18.477 9.77021C18.3517 9.78585 18.2307 9.82614 18.1211 9.88876C18.0114 9.95138 17.9153 10.0351 17.8381 10.135L13.2887 15.9353L10.1018 13.0901C9.91252 12.9212 9.66386 12.8343 9.41054 12.8487C9.15722 12.863 8.91998 12.9774 8.75101 13.1667C8.58204 13.356 8.49519 13.6047 8.50955 13.858C8.52392 14.1113 8.63833 14.3485 8.82761 14.5175L12.775 18.0417C12.9505 18.198 13.1773 18.2843 13.4124 18.2844C13.4403 18.2844 13.4687 18.2832 13.4966 18.2809C13.6269 18.2693 13.7534 18.2311 13.8683 18.1687C13.9832 18.1063 14.0841 18.021 14.1648 17.918L19.3436 11.3158H19.3436ZM14.0281 4.29937C8.66407 4.29937 4.30032 8.66313 4.30032 14.0263C4.30032 19.3895 8.66407 23.7533 14.0281 23.7533C19.392 23.7533 23.755 19.3895 23.755 14.0263C23.755 8.66313 19.3913 4.29937 14.0281 4.29937ZM14.0281 21.8404C15.5734 21.8402 17.084 21.3818 18.3688 20.5232C19.6536 19.6645 20.655 18.4441 21.2462 17.0164C21.8375 15.5886 21.9921 14.0176 21.6905 12.502C21.389 10.9863 20.6447 9.59418 19.5519 8.50152C18.4592 7.40885 17.0669 6.66476 15.5513 6.36333C14.0356 6.06191 12.4646 6.21668 11.0369 6.80809C9.60922 7.39949 8.38896 8.40097 7.53042 9.68588C6.67188 10.9708 6.21363 12.4814 6.21362 14.0268C6.21615 16.0984 7.04029 18.0845 8.50525 19.5493C9.97022 21.0142 11.9564 21.8381 14.0281 21.8404Z" fill="#E30613"/>
</g>
<defs>
<clipPath id="clip0_114_2174">
<rect width="37" height="37" fill="white"/>
</clipPath>
</defs>
</svg>
