<svg width="37" height="37" viewBox="0 0 37 37" fill="none" xmlns="http://www.w3.org/2000/svg">
<g clip-path="url(#clip0_114_2176)">
<path d="M20.0697 8.52121L17.8834 8.18485C17.7712 7.79243 17.6031 7.4 17.4349 7.06364L18.7803 5.2697C18.9485 5.04546 18.9485 4.70909 18.7243 4.54091L16.594 2.41061C16.3697 2.18637 16.0894 2.18637 15.8652 2.35455L14.0712 3.7C13.6788 3.53182 13.3425 3.36364 12.95 3.25152L12.6137 1.06515C12.5576 0.78485 12.3334 0.560608 12.0531 0.560608H9.08185C8.80155 0.560608 8.5773 0.78485 8.52124 1.06515L8.18488 3.25152C7.79246 3.36364 7.40003 3.53182 7.06367 3.7L5.26973 2.41061C5.04549 2.24243 4.76518 2.29849 4.54094 2.46667L2.41064 4.59697C2.24246 4.76515 2.24246 5.10152 2.41064 5.32576L3.75609 7.1197C3.58791 7.51212 3.41973 7.84849 3.30761 8.24091L1.12124 8.57727C0.840942 8.63334 0.616699 8.85758 0.616699 9.13788V12.1091C0.616699 12.3894 0.840942 12.6136 1.12124 12.6697L3.30761 13.0061C3.41973 13.3985 3.58791 13.7909 3.75609 14.1273L2.41064 15.9212C2.24246 16.0894 2.24246 16.4258 2.41064 16.5939L4.54094 18.7242C4.76518 18.8924 5.04549 18.9485 5.26973 18.7803L7.06367 17.4349C7.45609 17.603 7.79246 17.7712 8.18488 17.8833L8.52124 20.0697C8.5773 20.35 8.80155 20.5742 9.08185 20.5742H12.0531C12.3334 20.5742 12.5576 20.35 12.6137 20.0697L12.95 17.8833C13.3425 17.7712 13.7349 17.603 14.0712 17.4349L15.8652 18.7803C16.0894 18.9485 16.4258 18.9485 16.594 18.7242L18.7243 16.5939C18.8925 16.3697 18.9485 16.0894 18.7803 15.8652L17.3788 14.0712C17.547 13.6788 17.7152 13.3424 17.8273 12.95L20.0137 12.6136C20.294 12.5576 20.5182 12.3333 20.5182 12.053V9.08182C20.5743 8.80152 20.35 8.57727 20.0697 8.52121ZM10.5394 14.1273C8.5773 14.1273 7.00761 12.5576 7.00761 10.5955C7.00761 8.63334 8.5773 7.06364 10.5394 7.06364C12.5015 7.06364 14.0712 8.63334 14.0712 10.5955C14.0712 12.5576 12.5015 14.1273 10.5394 14.1273Z" fill="#E30613"/>
<path d="M15.6409 23.3212H30.0484V20.0136H16.9303L15.6409 23.3212Z" fill="#E30613"/>
<path d="M30.0484 24.4424H15.6409L16.9303 27.75H29.9924L30.0484 24.4424Z" fill="#E30613"/>
<path d="M33.2999 20.0136H31.1135V27.75H33.2999C34.1408 27.75 34.9256 27.4136 35.5423 26.853C36.159 26.2364 36.4393 25.4515 36.4393 24.6106V23.097C36.4393 21.4152 35.0378 20.0136 33.2999 20.0136Z" fill="#E30613"/>
<path d="M14.2954 24.1061C14.2393 23.9379 14.2393 23.8258 14.2954 23.6576L15.6969 20.1258L7.73627 23.3773C7.51202 23.4894 7.3999 23.6576 7.3999 23.8818C7.3999 24.1061 7.56808 24.3303 7.73627 24.3864L15.6969 27.6379L14.2954 24.1061Z" fill="#E30613"/>
<path d="M25.8999 28.3106H1.12115C0.784789 28.3106 0.560547 28.5349 0.560547 28.8712V35.8227C0.560547 36.1591 0.784789 36.3833 1.12115 36.3833H3.58782V34.3091C3.58782 33.9727 3.81206 33.7485 4.14843 33.7485C4.48479 33.7485 4.70903 33.9727 4.70903 34.3091V36.3833H7.34388V33.3C7.34388 32.9636 7.56812 32.7394 7.90449 32.7394C8.24085 32.7394 8.46509 32.9636 8.46509 33.3V36.3833H11.0999V34.3091C11.0999 33.9727 11.3242 33.7485 11.6605 33.7485C11.9969 33.7485 12.2212 33.9727 12.2212 34.3091V36.3833H14.856V33.3C14.856 32.9636 15.0802 32.7394 15.4166 32.7394C15.753 32.7394 15.9772 32.9636 15.9772 33.3V36.3833H18.6121V34.3091C18.6121 33.9727 18.8363 33.7485 19.1727 33.7485C19.509 33.7485 19.7333 33.9727 19.7333 34.3091V36.3833H22.3681V33.3C22.3681 32.9636 22.5924 32.7394 22.9287 32.7394C23.2651 32.7394 23.4893 32.9636 23.4893 33.3V36.3833H25.956C26.2924 36.3833 26.5166 36.1591 26.5166 35.8227V28.8712C26.4605 28.5909 26.1802 28.3106 25.8999 28.3106Z" fill="#E30613"/>
</g>
<defs>
<clipPath id="clip0_114_2176">
<rect width="37" height="37" fill="white"/>
</clipPath>
</defs>
</svg>
