<svg width="31" height="31" viewBox="0 0 31 31" fill="none" xmlns="http://www.w3.org/2000/svg">
<path d="M24.488 7.17965H17.8406V0.531601L24.488 7.17965Z" fill="#E30613"/>
<path d="M16.9325 8.99605C16.4312 8.99605 16.0243 8.58918 16.0243 8.08785V0H0.908203C0.406875 0 0 0.406875 0 0.908203V30.0918C0 30.5931 0.406875 31 0.908203 31H18.8585C16.8169 29.4149 15.5006 26.9373 15.5006 24.1588C15.5006 19.3847 19.3847 15.5006 24.1588 15.5006C24.4494 15.5006 24.7364 15.5151 25.0198 15.543V8.99605H16.9325ZM9.66389 20.707H4.54102C4.03969 20.707 3.63281 20.3002 3.63281 19.7988C3.63281 19.2975 4.03969 18.8906 4.54102 18.8906H9.66389C10.1658 18.8906 10.5721 19.2975 10.5721 19.7988C10.5721 20.3002 10.1658 20.707 9.66389 20.707ZM13.9318 16.4688H4.54102C4.03969 16.4688 3.63281 16.0619 3.63281 15.5605C3.63281 15.0592 4.03969 14.6523 4.54102 14.6523H13.9318C14.4332 14.6523 14.84 15.0592 14.84 15.5605C14.84 16.0619 14.4332 16.4688 13.9318 16.4688ZM13.9318 12.2305H4.54102C4.03969 12.2305 3.63281 11.8236 3.63281 11.3223C3.63281 10.8209 4.03969 10.4141 4.54102 10.4141H13.9318C14.4332 10.4141 14.84 10.8209 14.84 11.3223C14.84 11.8236 14.4332 12.2305 13.9318 12.2305Z" fill="#E30613"/>
<path d="M24.1583 17.317C20.3857 17.317 17.3171 20.3855 17.3171 24.1582C17.3171 27.9309 20.3857 31 24.1583 31C27.931 31 31.0001 27.9309 31.0001 24.1582C31.0001 20.3855 27.931 17.317 24.1583 17.317ZM27.6822 22.9497L23.9803 26.6515C23.8029 26.8289 23.5704 26.9179 23.3379 26.9179C23.1054 26.9179 22.8729 26.8289 22.6961 26.6515L20.6345 24.5905C20.2803 24.2363 20.2803 23.6611 20.6345 23.3063C20.9893 22.9515 21.5645 22.9515 21.9193 23.3063L23.3379 24.7255L24.3563 23.7071L26.398 21.6655C26.7528 21.3107 27.3274 21.3107 27.6822 21.6655C28.037 22.0203 28.037 22.5949 27.6822 22.9497Z" fill="#E30613"/>
</svg>
