<svg width="46" height="30" viewBox="0 0 46 30" fill="none" xmlns="http://www.w3.org/2000/svg">
<path d="M31.1758 0C23.0017 0 16.3516 6.65014 16.3516 14.8242C16.3516 22.9983 23.0017 29.6484 31.1758 29.6484C39.3499 29.6484 46 22.9983 46 14.8242C46 6.65014 39.3499 0 31.1758 0ZM31.1758 2.69531C31.92 2.69531 32.5234 3.2987 32.5234 4.04297C32.5234 4.78723 31.92 5.39062 31.1758 5.39062C30.4315 5.39062 29.8281 4.78723 29.8281 4.04297C29.8281 3.2987 30.4315 2.69531 31.1758 2.69531ZM20.3945 16.1719C19.6503 16.1719 19.0469 15.5685 19.0469 14.8242C19.0469 14.08 19.6503 13.4766 20.3945 13.4766C21.1388 13.4766 21.7422 14.08 21.7422 14.8242C21.7422 15.5685 21.1388 16.1719 20.3945 16.1719ZM24.5052 23.4006C23.9789 23.9269 23.1257 23.9269 22.5994 23.4006C22.0731 22.8743 22.0731 22.0211 22.5994 21.4948C23.1257 20.9685 23.9789 20.9685 24.5052 21.4948C25.0315 22.0211 25.0315 22.8744 24.5052 23.4006ZM24.5052 8.15368C23.9789 8.67998 23.1257 8.67998 22.5994 8.15368C22.0731 7.62737 22.0731 6.77413 22.5994 6.24782C23.1257 5.72152 23.9789 5.72152 24.5052 6.24782C25.0315 6.77413 25.0315 7.62737 24.5052 8.15368ZM31.1758 26.9531C30.4315 26.9531 29.8281 26.3497 29.8281 25.6055C29.8281 24.8612 30.4315 24.2578 31.1758 24.2578C31.92 24.2578 32.5234 24.8612 32.5234 25.6055C32.5234 26.3497 31.92 26.9531 31.1758 26.9531ZM35.9406 11.9655L32.1287 15.7772C31.6024 16.3035 30.7491 16.3035 30.2228 15.7772L27.0463 12.6008C26.52 12.0745 26.52 11.2212 27.0463 10.6949C27.5726 10.1686 28.4258 10.1686 28.9521 10.6949L31.1758 12.9184L34.0347 10.0595C34.561 9.53323 35.4142 9.53332 35.9406 10.0595C36.4669 10.5858 36.4669 11.4392 35.9406 11.9655ZM39.7522 23.4006C39.2259 23.9269 38.3726 23.9269 37.8463 23.4006C37.32 22.8743 37.32 22.0211 37.8463 21.4948C38.3726 20.9685 39.2259 20.9685 39.7522 21.4948C40.2785 22.0211 40.2785 22.8744 39.7522 23.4006ZM39.7522 8.15368C39.2259 8.67998 38.3726 8.67998 37.8463 8.15368C37.32 7.62737 37.32 6.77413 37.8463 6.24782C38.3726 5.72152 39.2259 5.72152 39.7522 6.24782C40.2785 6.77413 40.2785 7.62737 39.7522 8.15368ZM41.957 16.1719C41.2128 16.1719 40.6094 15.5685 40.6094 14.8242C40.6094 14.08 41.2128 13.4766 41.957 13.4766C42.7013 13.4766 43.3047 14.08 43.3047 14.8242C43.3047 15.5685 42.7013 16.1719 41.957 16.1719Z" fill="#E30613"/>
<path d="M6.28906 22.9102C6.28906 23.6544 6.89245 24.2578 7.63672 24.2578H13.9258C14.67 24.2578 15.2734 23.6544 15.2734 22.9102C15.2734 22.1659 14.67 21.5625 13.9258 21.5625H7.63672C6.89245 21.5625 6.28906 22.1659 6.28906 22.9102Z" fill="#E30613"/>
<path d="M1.34766 18.8672H11.6797C12.424 18.8672 13.0273 18.2638 13.0273 17.5195C13.0273 16.7753 12.424 16.1719 11.6797 16.1719H1.34766C0.603391 16.1719 0 16.7753 0 17.5195C0 18.2638 0.603391 18.8672 1.34766 18.8672Z" fill="#E30613"/>
<path d="M13.9258 5.39062H7.63672C6.89245 5.39062 6.28906 5.99402 6.28906 6.73828C6.28906 7.48255 6.89245 8.08594 7.63672 8.08594H13.9258C14.67 8.08594 15.2734 7.48255 15.2734 6.73828C15.2734 5.99402 14.67 5.39062 13.9258 5.39062Z" fill="#E30613"/>
<path d="M18.5459 26.9531H1.34766C0.603391 26.9531 0 27.5565 0 28.3008C0 29.045 0.603391 29.6484 1.34766 29.6484H21.8496C20.641 28.8854 19.5317 27.9792 18.5459 26.9531Z" fill="#E30613"/>
<path d="M1.34766 2.69531H18.5459C19.5317 1.66921 20.641 0.763043 21.8496 0H1.34766C0.603391 0 0 0.603391 0 1.34766C0 2.09192 0.603391 2.69531 1.34766 2.69531Z" fill="#E30613"/>
<path d="M4.22266 10.7812C3.47839 10.7812 2.875 11.3846 2.875 12.1289C2.875 12.8732 3.47839 13.4766 4.22266 13.4766H13.7076C13.7779 12.5566 13.9204 11.6564 14.1279 10.7812H4.22266Z" fill="#E30613"/>
</svg>
