<svg width="158" height="50" viewBox="0 0 158 50" fill="none" xmlns="http://www.w3.org/2000/svg">
<path d="M90.75 27.774L90.8103 0.839241L76.7881 0.829955L72.4328 17.2434L72.5535 17.1645L68.2401 0.727805L54.9096 0.70459L54.8446 27.6951H0.167114V29.6081L63.6248 29.6034L63.7455 8.35647L69.0712 28.3312L76.4352 28.3916L81.6819 8.59791L81.6726 29.4781L157.616 29.6267L157.509 27.774H90.75Z" fill="#1D1D1B"/>
<path d="M141.342 0.1708C141.342 0.1708 156.529 -1.22214 156.529 8.12913C156.529 8.22663 145.66 8.17556 145.66 8.17556C145.66 8.17556 145.66 6.03972 141.147 6.09079C136.731 6.13722 138.221 8.15234 138.379 8.27306C138.96 8.70952 143.343 9.28062 146.677 9.82387C151.724 10.6503 155.647 10.7479 157.449 14.871C158.735 19.4816 157.346 26.2141 143.798 26.2141C130.249 26.2141 127.909 20.2802 127.811 17.2204C127.811 17.1229 138.774 17.2761 138.774 17.2761C138.774 17.2761 138.407 19.9088 143.668 19.6255C146.625 19.4677 147.406 17.4618 145.506 16.7236C142.971 15.7392 140.914 16.3568 133.263 14.5784C131.484 14.1652 127.412 12.8698 127.658 7.34444C127.9 1.91197 133.091 0.505105 141.342 0.166157V0.1708Z" fill="#1D1D1B"/>
<path d="M0.0417883 25.0577L0 0.866943H24.9104L24.9615 6.86123L9.11447 6.8148V9.62853L22.0456 9.61925V15.5067L9.21662 15.4649L9.18411 18.7523H25.9876V25.0716L0.0417883 25.0577Z" fill="#1D1D1B"/>
<path d="M28.3231 25.002L28.2999 0.820557H37.628L37.6233 18.2416H52.2353V25.002H28.3231Z" fill="#1D1D1B"/>
<path d="M109.165 0.0126105C106.922 0.0869006 93.731 -0.21026 93.7495 13.6216C93.7635 25.2155 104.025 26.1256 111.143 26.1256C118.261 26.1256 126.033 23.1586 126.01 12.9809C125.982 -0.767436 109.165 0.00796727 109.165 0.00796727V0.0126105ZM115.651 13.213C115.558 16.5004 114.611 19.6345 109.49 19.328C104.15 19.0077 104.062 16.3146 103.649 13.032C103.649 13.032 103.468 6.34584 109.671 6.50835C115.01 6.643 115.693 11.5276 115.647 13.2177L115.651 13.213Z" fill="#1D1D1B"/>
<path d="M10.4187 44.3053L8.26246 39.0744L6.14612 44.3053H10.4187ZM4.02978 49.5363H0.196411L6.46557 35.5604H10.0793L16.3485 49.5363H12.5151L11.2972 46.7012H5.24767L4.02978 49.5363Z" fill="#E30613"/>
<path d="M31.1582 44.0458C31.1582 44.3253 31.1382 44.6447 31.1182 44.9841C31.0983 45.3435 31.0384 45.7029 30.9585 46.0623C30.8587 46.4416 30.7189 46.821 30.5193 47.2003C30.3196 47.5797 30.0601 47.939 29.7406 48.2585C29.3613 48.6378 28.962 48.9373 28.5227 49.1569C28.0835 49.3765 27.6243 49.5363 27.1451 49.6361C26.6659 49.7559 26.1668 49.8158 25.6677 49.8557C25.1685 49.8956 24.6894 49.8956 24.2102 49.8956C23.731 49.8956 23.2319 49.8956 22.7327 49.8557C22.2336 49.8158 21.7544 49.7559 21.2753 49.6361C20.7961 49.5363 20.3369 49.3765 19.8976 49.1569C19.4584 48.9373 19.0391 48.6378 18.6798 48.2585C18.3403 47.939 18.0808 47.5797 17.8811 47.2003C17.6815 46.821 17.5417 46.4416 17.4619 46.0623C17.362 45.7029 17.3021 45.3435 17.2822 44.9841C17.2622 44.6447 17.2622 44.3253 17.2622 44.0458V35.5604H20.9359V43.6664C20.9359 43.8261 20.9359 44.0258 20.9359 44.2454C20.9359 44.465 20.9758 44.6847 21.0357 44.9242C21.0756 45.1638 21.1555 45.3835 21.2753 45.623C21.3751 45.8626 21.5148 46.0623 21.7145 46.242C21.8742 46.4416 22.0739 46.5814 22.3135 46.6812C22.5331 46.781 22.7527 46.8609 22.9923 46.9008C23.2119 46.9607 23.4315 47.0007 23.6512 47.0007C23.8508 47.0206 24.0505 47.0206 24.2102 47.0206C24.3699 47.0206 24.5496 47.0206 24.7692 47.0007C24.9689 47.0007 25.1885 46.9607 25.4281 46.9008C25.6477 46.8609 25.8673 46.781 26.0869 46.6812C26.3066 46.5814 26.5062 46.4416 26.7059 46.242C26.8856 46.0623 27.0253 45.8626 27.1451 45.623C27.2449 45.3835 27.3248 45.1638 27.3647 44.9242C27.4047 44.6847 27.4446 44.465 27.4646 44.2454C27.4646 44.0258 27.4845 43.8261 27.4845 43.6664V35.5604H31.1582V44.0458Z" fill="#E30613"/>
<path d="M33.0983 38.3556V35.5604H46.515V38.3556H41.6435V49.5363H37.9698V38.3556H33.0983Z" fill="#E30613"/>
<path d="M55.9915 37.9563C55.5123 37.9563 55.0132 38.0362 54.4741 38.156C53.935 38.2757 53.4359 38.5752 52.9567 39.0344C52.6572 39.3139 52.4176 39.6334 52.2579 39.9528C52.0982 40.2723 51.9584 40.5917 51.8786 40.9112C51.7987 41.2306 51.7388 41.5501 51.7189 41.8296C51.6789 42.1091 51.6789 42.3487 51.6789 42.5484C51.6789 42.748 51.6789 43.0076 51.7189 43.2871C51.7388 43.5666 51.7987 43.8661 51.8786 44.1855C51.9584 44.505 52.0982 44.8444 52.2579 45.1638C52.4176 45.4833 52.6572 45.7828 52.9567 46.0623C53.4359 46.5414 53.935 46.8409 54.4741 46.9607C55.0132 47.0805 55.5123 47.1404 55.9915 47.1404C56.4507 47.1404 56.9498 47.0805 57.4889 46.9607C58.0279 46.8409 58.547 46.5414 59.0262 46.0623C59.3057 45.7828 59.5453 45.4833 59.705 45.1638C59.8648 44.8444 60.0045 44.505 60.0844 44.1855C60.1642 43.8661 60.2241 43.5666 60.2641 43.2871C60.284 43.0076 60.304 42.748 60.304 42.5484C60.304 42.3487 60.284 42.1091 60.2641 41.8296C60.2241 41.5501 60.1642 41.2306 60.0844 40.9112C60.0045 40.5917 59.8648 40.2723 59.705 39.9528C59.5453 39.6334 59.3057 39.3139 59.0262 39.0344C58.547 38.5752 58.0279 38.2757 57.4889 38.156C56.9498 38.0362 56.4507 37.9563 55.9915 37.9563ZM64.2971 42.5484C64.2971 42.9676 64.2572 43.4069 64.2172 43.8461C64.1573 44.3053 64.0575 44.7645 63.8978 45.2237C63.7381 45.6829 63.4985 46.1421 63.219 46.6013C62.9394 47.0605 62.5601 47.4998 62.1009 47.8991C61.8214 48.1387 61.5019 48.3783 61.1426 48.6179C60.7832 48.8574 60.3439 49.0771 59.8448 49.2767C59.3457 49.4764 58.7866 49.6361 58.1477 49.7559C57.5088 49.8757 56.7901 49.9356 55.9915 49.9356C55.1928 49.9356 54.4741 49.8757 53.8352 49.7559C53.1963 49.6361 52.6173 49.4764 52.1182 49.2767C51.619 49.0771 51.1798 48.8574 50.8204 48.6179C50.461 48.3783 50.1416 48.1387 49.882 47.8991C49.4029 47.4998 49.0235 47.0605 48.744 46.6013C48.4645 46.1421 48.2449 45.6829 48.0851 45.2237C47.9254 44.7645 47.8056 44.3053 47.7657 43.8461C47.7058 43.4069 47.6858 42.9676 47.6858 42.5484C47.6858 42.149 47.7058 41.7098 47.7657 41.2506C47.8056 40.8114 47.9254 40.3522 48.0851 39.8929C48.2449 39.4337 48.4645 38.9745 48.744 38.5153C49.0235 38.0761 49.4029 37.6369 49.882 37.1976C50.1416 36.958 50.461 36.7184 50.8204 36.4789C51.1798 36.2393 51.619 36.0396 52.1182 35.84C52.6173 35.6403 53.1963 35.4806 53.8352 35.3608C54.4741 35.241 55.1928 35.1611 55.9915 35.1611C56.7901 35.1611 57.5088 35.241 58.1477 35.3608C58.7866 35.4806 59.3457 35.6403 59.8448 35.84C60.3439 36.0396 60.7832 36.2393 61.1426 36.4789C61.5019 36.7184 61.8214 36.958 62.1009 37.1976C62.5601 37.6369 62.9394 38.0761 63.219 38.5153C63.4985 38.9745 63.7381 39.4337 63.8978 39.8929C64.0575 40.3522 64.1573 40.8114 64.2172 41.2506C64.2572 41.7098 64.2971 42.149 64.2971 42.5484Z" fill="#E30613"/>
<path d="M70.7648 39.1343H70.6251L70.7648 40.3122V49.5363H67.0912V35.5604H72.2822L76.2354 45.7029H76.3352L80.2883 35.5604H85.4794V49.5363H81.8057V40.3122L81.9455 39.1343H81.8057L77.613 49.5363H74.9576L70.7648 39.1343Z" fill="#E30613"/>
<path d="M97.5025 44.3053L95.3462 39.0744L93.2299 44.3053H97.5025ZM91.1135 49.5363H87.2802L93.5493 35.5604H97.1631L103.432 49.5363H99.5989L98.381 46.7012H92.3314L91.1135 49.5363Z" fill="#E30613"/>
<path d="M102.215 38.3556V35.5604H115.632V38.3556H110.761V49.5363H107.087V38.3556H102.215Z" fill="#E30613"/>
<path d="M121.486 35.5604V49.5363H117.813V35.5604H121.486Z" fill="#E30613"/>
<path d="M132.605 37.9563C132.126 37.9563 131.627 38.0362 131.088 38.156C130.549 38.2757 130.049 38.5752 129.57 39.0344C129.271 39.3139 129.031 39.6334 128.872 39.9528C128.712 40.2723 128.572 40.5917 128.492 40.9112C128.412 41.2306 128.352 41.5501 128.332 41.8296C128.292 42.1091 128.292 42.3487 128.292 42.5484C128.292 42.748 128.292 43.0076 128.332 43.2871C128.352 43.5666 128.412 43.8661 128.492 44.1855C128.572 44.505 128.712 44.8444 128.872 45.1638C129.031 45.4833 129.271 45.7828 129.57 46.0623C130.049 46.5414 130.549 46.8409 131.088 46.9607C131.627 47.0805 132.126 47.1404 132.605 47.1404C133.064 47.1404 133.563 47.0805 134.102 46.9607C134.642 46.8409 135.161 46.5414 135.64 46.0623C135.919 45.7828 136.159 45.4833 136.319 45.1638C136.478 44.8444 136.618 44.505 136.698 44.1855C136.778 43.8661 136.838 43.5666 136.878 43.2871C136.898 43.0076 136.918 42.748 136.918 42.5484C136.918 42.3487 136.898 42.1091 136.878 41.8296C136.838 41.5501 136.778 41.2306 136.698 40.9112C136.618 40.5917 136.478 40.2723 136.319 39.9528C136.159 39.6334 135.919 39.3139 135.64 39.0344C135.161 38.5752 134.642 38.2757 134.102 38.156C133.563 38.0362 133.064 37.9563 132.605 37.9563ZM140.911 42.5484C140.911 42.9676 140.871 43.4069 140.831 43.8461C140.771 44.3053 140.671 44.7645 140.511 45.2237C140.352 45.6829 140.112 46.1421 139.833 46.6013C139.553 47.0605 139.174 47.4998 138.714 47.8991C138.435 48.1387 138.116 48.3783 137.756 48.6179C137.397 48.8574 136.958 49.0771 136.458 49.2767C135.959 49.4764 135.4 49.6361 134.761 49.7559C134.122 49.8757 133.404 49.9356 132.605 49.9356C131.806 49.9356 131.088 49.8757 130.449 49.7559C129.81 49.6361 129.231 49.4764 128.732 49.2767C128.233 49.0771 127.793 48.8574 127.434 48.6179C127.075 48.3783 126.755 48.1387 126.496 47.8991C126.016 47.4998 125.637 47.0605 125.358 46.6013C125.078 46.1421 124.858 45.6829 124.699 45.2237C124.539 44.7645 124.419 44.3053 124.379 43.8461C124.319 43.4069 124.299 42.9676 124.299 42.5484C124.299 42.149 124.319 41.7098 124.379 41.2506C124.419 40.8114 124.539 40.3522 124.699 39.8929C124.858 39.4337 125.078 38.9745 125.358 38.5153C125.637 38.0761 126.016 37.6369 126.496 37.1976C126.755 36.958 127.075 36.7184 127.434 36.4789C127.793 36.2393 128.233 36.0396 128.732 35.84C129.231 35.6403 129.81 35.4806 130.449 35.3608C131.088 35.241 131.806 35.1611 132.605 35.1611C133.404 35.1611 134.122 35.241 134.761 35.3608C135.4 35.4806 135.959 35.6403 136.458 35.84C136.958 36.0396 137.397 36.2393 137.756 36.4789C138.116 36.7184 138.435 36.958 138.714 37.1976C139.174 37.6369 139.553 38.0761 139.833 38.5153C140.112 38.9745 140.352 39.4337 140.511 39.8929C140.671 40.3522 140.771 40.8114 140.831 41.2506C140.871 41.7098 140.911 42.149 140.911 42.5484Z" fill="#E30613"/>
<path d="M158 49.5363H154.426L147.378 40.1525V49.5363H143.705V35.5604H147.299L154.326 44.9442V35.5604H158V49.5363Z" fill="#E30613"/>
</svg>
