<svg width="184" height="58" viewBox="0 0 184 58" fill="none" xmlns="http://www.w3.org/2000/svg">
<path d="M105.406 32.2594L105.476 0.974695L89.189 0.963909L84.1304 20.0281L84.2706 19.9364L79.2606 0.845263L63.7773 0.818298L63.7018 32.1677H0.194092V34.3896L73.8999 34.3842L74.0401 9.70593L80.2259 32.9065L88.7792 32.9766L94.8732 9.98636L94.8624 34.2386L183.07 34.4112L182.946 32.2594H105.406Z" fill="#F1F6F7"/>
<path d="M164.168 0.198216C164.168 0.198216 181.808 -1.41968 181.808 9.44178C181.808 9.55503 169.183 9.49571 169.183 9.49571C169.183 9.49571 169.183 7.01494 163.941 7.07426C158.812 7.12819 160.544 9.46875 160.727 9.60896C161.401 10.1159 166.492 10.7792 170.364 11.4102C176.226 12.3702 180.783 12.4834 182.876 17.2724C184.37 22.6276 182.757 30.4474 167.021 30.4474C151.284 30.4474 148.566 23.5552 148.453 20.0012C148.453 19.888 161.185 20.066 161.185 20.066C161.185 20.066 160.759 23.1238 166.87 22.7948C170.305 22.6114 171.211 20.2817 169.005 19.4242C166.061 18.2809 163.672 18.9981 154.784 16.9326C152.718 16.4527 147.989 14.948 148.275 8.53037C148.555 2.22058 154.584 0.58651 164.168 0.192823V0.198216Z" fill="#F1F6F7"/>
<path d="M0.0485369 29.1044L0 1.00702H28.9333L28.9927 7.96935L10.5864 7.91543V11.1836L25.6059 11.1728V18.0111L10.7051 17.9625L10.6673 21.7808H30.1845V29.1206L0.0485369 29.1044Z" fill="#F1F6F7"/>
<path d="M32.8972 29.0397L32.8702 0.953064H43.7047L43.6993 21.1875H60.671V29.0397H32.8972Z" fill="#F1F6F7"/>
<path d="M126.794 0.0146471C124.19 0.100935 108.868 -0.244216 108.89 15.8215C108.906 29.2877 120.824 30.3448 129.092 30.3448C137.359 30.3448 146.387 26.8986 146.36 15.0772C146.328 -0.891374 126.794 0.00925395 126.794 0.00925395V0.0146471ZM134.328 15.3469C134.22 19.1651 133.12 22.8054 127.172 22.4494C120.97 22.0773 120.867 18.9494 120.387 15.1366C120.387 15.1366 120.177 7.37067 127.382 7.55943C133.584 7.71582 134.377 13.3892 134.323 15.3523L134.328 15.3469Z" fill="#F1F6F7"/>
<path d="M12.1013 51.4605L9.59683 45.3847L7.13871 51.4605H12.1013ZM4.68059 57.5362H0.228149L7.50975 41.3033H11.7071L18.9887 57.5362H14.5363L13.1217 54.2432H6.09517L4.68059 57.5362Z" fill="#E30613"/>
<path d="M36.1901 51.159C36.1901 51.4837 36.1669 51.8547 36.1437 52.2489C36.1205 52.6663 36.051 53.0838 35.9582 53.5012C35.8423 53.9418 35.6799 54.3824 35.448 54.823C35.2161 55.2636 34.9147 55.681 34.5436 56.0521C34.103 56.4927 33.6392 56.8405 33.1291 57.0956C32.6189 57.3507 32.0855 57.5362 31.529 57.6521C30.9724 57.7913 30.3927 57.8609 29.8129 57.9072C29.2332 57.9536 28.6766 57.9536 28.1201 57.9536C27.5635 57.9536 26.9838 57.9536 26.404 57.9072C25.8243 57.8609 25.2677 57.7913 24.7112 57.6521C24.1546 57.5362 23.6212 57.3507 23.1111 57.0956C22.6009 56.8405 22.1139 56.4927 21.6965 56.0521C21.3022 55.681 21.0008 55.2636 20.7689 54.823C20.537 54.3824 20.3747 53.9418 20.2819 53.5012C20.1659 53.0838 20.0964 52.6663 20.0732 52.2489C20.05 51.8547 20.05 51.4837 20.05 51.159V41.3033H24.3169V50.7184C24.3169 50.9039 24.3169 51.1358 24.3169 51.3909C24.3169 51.646 24.3633 51.9011 24.4329 52.1794C24.4793 52.4576 24.572 52.7127 24.7112 52.991C24.8271 53.2693 24.9894 53.5012 25.2213 53.7099C25.4068 53.9418 25.6387 54.1041 25.917 54.2201C26.1721 54.336 26.4272 54.4288 26.7055 54.4751C26.9606 54.5447 27.2157 54.5911 27.4707 54.5911C27.7026 54.6143 27.9345 54.6143 28.1201 54.6143C28.3056 54.6143 28.5143 54.6143 28.7694 54.5911C29.0013 54.5911 29.2564 54.5447 29.5346 54.4751C29.7897 54.4288 30.0448 54.336 30.2999 54.2201C30.555 54.1041 30.7869 53.9418 31.0188 53.7099C31.2275 53.5012 31.3898 53.2693 31.529 52.991C31.6449 52.7127 31.7377 52.4576 31.784 52.1794C31.8304 51.9011 31.8768 51.646 31.9 51.3909C31.9 51.1358 31.9232 50.9039 31.9232 50.7184V41.3033H36.1901V51.159Z" fill="#E30613"/>
<path d="M38.4435 44.5499V41.3033H54.0271V44.5499H48.3687V57.5362H44.1018V44.5499H38.4435Z" fill="#E30613"/>
<path d="M65.0339 44.0861C64.4773 44.0861 63.8976 44.1789 63.2715 44.318C62.6453 44.4571 62.0656 44.805 61.509 45.3384C61.1612 45.663 60.8829 46.0341 60.6974 46.4051C60.5119 46.7761 60.3495 47.1472 60.2568 47.5182C60.164 47.8892 60.0945 48.2603 60.0713 48.5849C60.0249 48.9096 60.0249 49.1879 60.0249 49.4198C60.0249 49.6517 60.0249 49.9531 60.0713 50.2778C60.0945 50.6024 60.164 50.9503 60.2568 51.3213C60.3495 51.6924 60.5119 52.0866 60.6974 52.4576C60.8829 52.8287 61.1612 53.1765 61.509 53.5012C62.0656 54.0577 62.6453 54.4056 63.2715 54.5447C63.8976 54.6839 64.4773 54.7534 65.0339 54.7534C65.5672 54.7534 66.147 54.6839 66.7731 54.5447C67.3992 54.4056 68.0022 54.0577 68.5587 53.5012C68.8834 53.1765 69.1617 52.8287 69.3472 52.4576C69.5327 52.0866 69.695 51.6924 69.7878 51.3213C69.8806 50.9503 69.9501 50.6024 69.9965 50.2778C70.0197 49.9531 70.0429 49.6517 70.0429 49.4198C70.0429 49.1879 70.0197 48.9096 69.9965 48.5849C69.9501 48.2603 69.8806 47.8892 69.7878 47.5182C69.695 47.1472 69.5327 46.7761 69.3472 46.4051C69.1617 46.0341 68.8834 45.663 68.5587 45.3384C68.0022 44.805 67.3992 44.4571 66.7731 44.318C66.147 44.1789 65.5672 44.0861 65.0339 44.0861ZM74.6808 49.4198C74.6808 49.9068 74.6345 50.4169 74.5881 50.9271C74.5185 51.4605 74.4026 51.9938 74.217 52.5272C74.0315 53.0606 73.7533 53.5939 73.4286 54.1273C73.1039 54.6607 72.6633 55.1708 72.13 55.6346C71.8053 55.9129 71.4343 56.1912 71.0169 56.4695C70.5994 56.7477 70.0893 57.0028 69.5095 57.2347C68.9298 57.4666 68.2805 57.6521 67.5384 57.7913C66.7963 57.9304 65.9615 58 65.0339 58C64.1063 58 63.2715 57.9304 62.5294 57.7913C61.7873 57.6521 61.1148 57.4666 60.5351 57.2347C59.9553 57.0028 59.4451 56.7477 59.0277 56.4695C58.6103 56.1912 58.2393 55.9129 57.9378 55.6346C57.3812 55.1708 56.9406 54.6607 56.616 54.1273C56.2913 53.5939 56.0362 53.0606 55.8507 52.5272C55.6652 51.9938 55.5261 51.4605 55.4797 50.9271C55.4101 50.4169 55.3869 49.9068 55.3869 49.4198C55.3869 48.956 55.4101 48.4458 55.4797 47.9124C55.5261 47.4023 55.6652 46.8689 55.8507 46.3355C56.0362 45.8022 56.2913 45.2688 56.616 44.7354C56.9406 44.2253 57.3812 43.7151 57.9378 43.2049C58.2393 42.9266 58.6103 42.6483 59.0277 42.3701C59.4451 42.0918 59.9553 41.8599 60.5351 41.628C61.1148 41.3961 61.7873 41.2106 62.5294 41.0714C63.2715 40.9323 64.1063 40.8395 65.0339 40.8395C65.9615 40.8395 66.7963 40.9323 67.5384 41.0714C68.2805 41.2106 68.9298 41.3961 69.5095 41.628C70.0893 41.8599 70.5994 42.0918 71.0169 42.3701C71.4343 42.6483 71.8053 42.9266 72.13 43.2049C72.6633 43.7151 73.1039 44.2253 73.4286 44.7354C73.7533 45.2688 74.0315 45.8022 74.217 46.3355C74.4026 46.8689 74.5185 47.4023 74.5881 47.9124C74.6345 48.4458 74.6808 48.956 74.6808 49.4198Z" fill="#E30613"/>
<path d="M82.1931 45.4543H82.0307L82.1931 46.8225V57.5362H77.9261V41.3033H83.9555L88.5471 53.0838H88.663L93.2546 41.3033H99.284V57.5362H95.017V46.8225L95.1794 45.4543H95.017L90.1472 57.5362H87.0629L82.1931 45.4543Z" fill="#E30613"/>
<path d="M113.249 51.4605L110.744 45.3847L108.286 51.4605H113.249ZM105.828 57.5362H101.376L108.657 41.3033H112.855L120.136 57.5362H115.684L114.269 54.2432H107.243L105.828 57.5362Z" fill="#E30613"/>
<path d="M118.723 44.5499V41.3033H134.306V44.5499H128.648V57.5362H124.381V44.5499H118.723Z" fill="#E30613"/>
<path d="M141.106 41.3033V57.5362H136.839V41.3033H141.106Z" fill="#E30613"/>
<path d="M154.02 44.0861C153.464 44.0861 152.884 44.1789 152.258 44.318C151.632 44.4571 151.052 44.805 150.495 45.3384C150.148 45.663 149.869 46.0341 149.684 46.4051C149.498 46.7761 149.336 47.1472 149.243 47.5182C149.15 47.8892 149.081 48.2603 149.058 48.5849C149.011 48.9096 149.011 49.1879 149.011 49.4198C149.011 49.6517 149.011 49.9531 149.058 50.2778C149.081 50.6024 149.15 50.9503 149.243 51.3213C149.336 51.6924 149.498 52.0866 149.684 52.4576C149.869 52.8287 150.148 53.1765 150.495 53.5012C151.052 54.0577 151.632 54.4056 152.258 54.5447C152.884 54.6839 153.464 54.7534 154.02 54.7534C154.554 54.7534 155.133 54.6839 155.759 54.5447C156.386 54.4056 156.989 54.0577 157.545 53.5012C157.87 53.1765 158.148 52.8287 158.334 52.4576C158.519 52.0866 158.681 51.6924 158.774 51.3213C158.867 50.9503 158.936 50.6024 158.983 50.2778C159.006 49.9531 159.029 49.6517 159.029 49.4198C159.029 49.1879 159.006 48.9096 158.983 48.5849C158.936 48.2603 158.867 47.8892 158.774 47.5182C158.681 47.1472 158.519 46.7761 158.334 46.4051C158.148 46.0341 157.87 45.663 157.545 45.3384C156.989 44.805 156.386 44.4571 155.759 44.318C155.133 44.1789 154.554 44.0861 154.02 44.0861ZM163.667 49.4198C163.667 49.9068 163.621 50.4169 163.574 50.9271C163.505 51.4605 163.389 51.9938 163.203 52.5272C163.018 53.0606 162.74 53.5939 162.415 54.1273C162.09 54.6607 161.65 55.1708 161.116 55.6346C160.792 55.9129 160.421 56.1912 160.003 56.4695C159.586 56.7477 159.076 57.0028 158.496 57.2347C157.916 57.4666 157.267 57.6521 156.525 57.7913C155.783 57.9304 154.948 58 154.02 58C153.093 58 152.258 57.9304 151.516 57.7913C150.774 57.6521 150.101 57.4666 149.521 57.2347C148.942 57.0028 148.432 56.7477 148.014 56.4695C147.597 56.1912 147.226 55.9129 146.924 55.6346C146.368 55.1708 145.927 54.6607 145.602 54.1273C145.278 53.5939 145.023 53.0606 144.837 52.5272C144.652 51.9938 144.512 51.4605 144.466 50.9271C144.396 50.4169 144.373 49.9068 144.373 49.4198C144.373 48.956 144.396 48.4458 144.466 47.9124C144.512 47.4023 144.652 46.8689 144.837 46.3355C145.023 45.8022 145.278 45.2688 145.602 44.7354C145.927 44.2253 146.368 43.7151 146.924 43.2049C147.226 42.9266 147.597 42.6483 148.014 42.3701C148.432 42.0918 148.942 41.8599 149.521 41.628C150.101 41.3961 150.774 41.2106 151.516 41.0714C152.258 40.9323 153.093 40.8395 154.02 40.8395C154.948 40.8395 155.783 40.9323 156.525 41.0714C157.267 41.2106 157.916 41.3961 158.496 41.628C159.076 41.8599 159.586 42.0918 160.003 42.3701C160.421 42.6483 160.792 42.9266 161.116 43.2049C161.65 43.7151 162.09 44.2253 162.415 44.7354C162.74 45.2688 163.018 45.8022 163.203 46.3355C163.389 46.8689 163.505 47.4023 163.574 47.9124C163.621 48.4458 163.667 48.956 163.667 49.4198Z" fill="#E30613"/>
<path d="M183.516 57.5362H179.365L171.179 46.637V57.5362H166.913V41.3033H171.087L179.249 52.2025V41.3033H183.516V57.5362Z" fill="#E30613"/>
</svg>
