<svg width="22" height="22" viewBox="0 0 22 22" fill="none" xmlns="http://www.w3.org/2000/svg">
<g clip-path="url(#clip0_62_299)">
<path d="M9.92253 10.8873C10.497 11.2703 11.5049 11.2704 12.0795 10.8873C12.0796 10.8873 12.0797 10.8872 12.0798 10.8871L21.871 4.35965C21.5498 3.43083 20.6671 2.76172 19.6305 2.76172H2.3714C1.33477 2.76172 0.452053 3.43083 0.130859 4.35965L9.92222 10.8872C9.92235 10.8873 9.92244 10.8873 9.92253 10.8873Z" fill="#E30613"/>
<path d="M12.7939 11.9595C12.7937 11.9596 12.7937 11.9597 12.7936 11.9597C12.2907 12.2949 11.6453 12.4626 11 12.4626C10.3546 12.4626 9.70938 12.295 9.20651 11.9597C9.20643 11.9597 9.20638 11.9596 9.2063 11.9596L0 5.82208V16.8682C0 18.1752 1.06336 19.2385 2.37043 19.2385H19.6297C20.9367 19.2385 22 18.1752 22 16.8682V5.82208L12.7939 11.9595Z" fill="#E30613"/>
</g>
<defs>
<clipPath id="clip0_62_299">
<rect width="22" height="22" fill="white"/>
</clipPath>
</defs>
</svg>
