<svg width="23" height="22" viewBox="0 0 23 22" fill="none" xmlns="http://www.w3.org/2000/svg">
<path fill-rule="evenodd" clip-rule="evenodd" d="M22.579 19.3513C22.4262 19.4969 22.2421 19.6831 22.0468 19.8801C21.5595 20.3748 20.9508 20.9898 20.5692 21.2392C18.5617 22.5513 15.8761 21.9235 13.9764 21.1663C11.4703 20.1675 8.74196 18.3265 6.29216 15.9827C3.84008 13.6389 1.91563 11.0282 0.871464 8.63232C0.0808757 6.81473 -0.576885 4.24518 0.795101 2.32446C1.05564 1.95922 1.70001 1.3778 2.2165 0.910773C2.42313 0.724545 2.61629 0.548586 2.76901 0.402964C3.04016 0.144881 3.40711 0 3.78961 0C4.17212 0 4.53907 0.144881 4.81021 0.402964L8.50388 3.9352C8.77353 4.19456 8.9249 4.54547 8.9249 4.91126C8.9249 5.27705 8.77353 5.62797 8.50388 5.88733L7.49768 6.8479C7.16164 7.16699 6.9423 7.58135 6.87229 8.02931C6.80229 8.47726 6.88537 8.93486 7.10917 9.33401C8.49314 11.8327 10.6297 13.8761 13.2421 15.1996C13.6592 15.4136 14.1375 15.493 14.6057 15.4259C15.0738 15.3588 15.5068 15.1489 15.8401 14.8274L16.8439 13.8667C17.115 13.6087 17.482 13.4638 17.8645 13.4638C18.247 13.4638 18.6139 13.6087 18.8851 13.8667L22.579 17.3996C22.8486 17.6588 23 18.0097 23 18.3754C23 18.7411 22.8486 19.092 22.579 19.3513Z" fill="#E30613"/>
</svg>
