<svg width="22" height="22" viewBox="0 0 22 22" fill="none" xmlns="http://www.w3.org/2000/svg">
<path d="M9.00419 16.5904C4.82114 16.5904 1.41797 13.1872 1.41797 9.00419C1.41797 4.82114 4.82114 1.41797 9.00419 1.41797C13.1872 1.41797 16.5904 4.82114 16.5904 9.00419C16.5904 13.1872 13.1872 16.5904 9.00419 16.5904ZM9.00419 2.93521C5.65791 2.93521 2.93521 5.65791 2.93521 9.00419C2.93521 12.3505 5.65791 15.0731 9.00419 15.0731C12.3505 15.0731 15.0731 12.3505 15.0731 9.00419C15.0731 5.65791 12.3512 2.93521 9.00419 2.93521Z" fill="#F1F6F7"/>
<path d="M19.8468 20.6054C19.7472 20.6055 19.6485 20.586 19.5564 20.5478C19.4644 20.5097 19.3808 20.4537 19.3104 20.3832L13.4736 14.5463C13.4032 14.4759 13.3473 14.3923 13.3092 14.3002C13.2711 14.2082 13.2515 14.1096 13.2515 14.01C13.2515 13.9104 13.2711 13.8117 13.3092 13.7197C13.3473 13.6277 13.4032 13.5441 13.4736 13.4737C13.5441 13.4032 13.6277 13.3473 13.7197 13.3092C13.8117 13.2711 13.9103 13.2515 14.01 13.2515C14.1096 13.2515 14.2082 13.2711 14.3002 13.3092C14.3923 13.3473 14.4759 13.4032 14.5463 13.4737L20.3832 19.3105C20.4896 19.4164 20.5621 19.5516 20.5916 19.6989C20.6211 19.8461 20.6061 19.9988 20.5487 20.1376C20.4912 20.2763 20.3938 20.3949 20.2688 20.4782C20.1439 20.5615 19.997 20.6058 19.8468 20.6054Z" fill="#F1F6F7"/>
</svg>
