<svg width="19" height="16" viewBox="0 0 19 16" fill="none" xmlns="http://www.w3.org/2000/svg">
<path fill-rule="evenodd" clip-rule="evenodd" d="M1.79836 6.70763C6.74181 4.55377 10.038 3.13368 11.6868 2.44735C16.3962 0.489582 17.3799 0.149582 18.0124 0.136931C18.247 0.132371 18.4771 0.201508 18.6703 0.334605C18.8059 0.451506 18.8923 0.615307 18.9122 0.79321C18.9463 1.01446 18.9558 1.2388 18.9407 1.46214C18.6861 4.15051 17.5807 10.6485 17.0193 13.6515C16.7821 14.9167 16.314 15.3484 15.8601 15.3911C14.8765 15.4812 14.1206 14.7395 13.1718 14.1149C11.6789 13.136 10.836 12.5335 9.38748 11.572C7.71278 10.465 8.7992 9.86251 9.75278 8.87256C10.0026 8.61321 14.3388 4.66605 14.4242 4.30865C14.4355 4.25588 14.4342 4.20119 14.4205 4.14901C14.4067 4.09682 14.3809 4.04859 14.3452 4.00819C14.2933 3.97574 14.2345 3.95585 14.1735 3.95009C14.1126 3.94432 14.0512 3.95284 13.9941 3.97498C13.8454 4.00766 11.4617 5.58326 6.84302 8.70177C6.16618 9.1667 5.55313 9.39336 5.00386 9.38177C4.39818 9.36754 3.23427 9.0386 2.36766 8.74921C1.30655 8.40447 0.469995 8.2226 0.536413 7.64223C0.575421 7.3386 0.996069 7.02707 1.79836 6.70763Z" fill="white"/>
</svg>
