<svg width="20" height="18" viewBox="0 0 20 18" fill="none" xmlns="http://www.w3.org/2000/svg">
<path fill-rule="evenodd" clip-rule="evenodd" d="M1.37459 7.74981C6.74353 5.20952 10.3234 3.53465 12.1142 2.72519C17.229 0.416171 18.2972 0.0151708 18.9843 0.000249885C19.239 -0.00512786 19.4889 0.0764134 19.6987 0.23339C19.846 0.371264 19.9398 0.564453 19.9615 0.774274C19.9985 1.03522 20.0089 1.2998 19.9924 1.56322C19.7159 4.73392 18.5154 12.3977 17.9057 15.9395C17.648 17.4316 17.1396 17.9408 16.6467 17.9912C15.5784 18.0975 14.7574 17.2227 13.7269 16.486C12.1056 15.3315 11.1902 14.6209 9.61693 13.4869C7.79809 12.1813 8.97802 11.4707 10.0137 10.3032C10.285 9.99728 14.9945 5.34195 15.0872 4.92043C15.0994 4.85819 15.098 4.79369 15.0831 4.73214C15.0682 4.67059 15.0402 4.61371 15.0013 4.56606C14.945 4.52779 14.8811 4.50433 14.815 4.49753C14.7488 4.49073 14.682 4.50079 14.62 4.52689C14.4586 4.56544 11.8697 6.42371 6.85346 10.1017C6.11836 10.6501 5.45254 10.9174 4.85599 10.9037C4.19818 10.8869 2.93409 10.499 1.99289 10.1577C0.840438 9.75108 -0.0681186 9.53659 0.00401692 8.8521C0.0463822 8.49399 0.503237 8.12657 1.37459 7.74981Z" fill="#E30613"/>
</svg>
