<svg width="20" height="21" viewBox="0 0 20 21" fill="none" xmlns="http://www.w3.org/2000/svg">
<path fill-rule="evenodd" clip-rule="evenodd" d="M1.9717 15.3275L0.649902 20.3498L5.59216 19.0013C6.95706 19.7752 8.48639 20.1812 10.0407 20.1821C12.0897 20.182 14.0815 19.478 15.707 18.1798C17.3327 16.8814 18.5015 15.061 19.0321 13.0011C19.563 10.9409 19.4259 8.75614 18.6424 6.78536C17.859 4.81457 16.4728 3.16788 14.6986 2.10056C12.9246 1.03322 10.862 0.604876 8.83026 0.881925C6.79862 1.15897 4.9115 2.12594 3.46148 3.63292C2.01146 5.13988 1.07954 7.1027 0.810197 9.21704C0.540851 11.3314 0.949115 13.4792 1.9717 15.3275ZM14.4106 12.5757C14.5738 12.657 14.6843 12.712 14.7308 12.7944C14.7886 12.8946 14.8009 13.3739 14.6013 13.9388C14.4017 14.5038 13.4721 15.0213 13.0256 15.0905C12.5365 15.1771 12.0349 15.1439 11.5603 14.994C11.1095 14.8487 10.6666 14.6783 10.2333 14.4837C8.05659 13.5064 6.58507 11.313 6.30173 10.8908C6.2813 10.8604 6.26705 10.839 6.25916 10.8281L6.259 10.8279C6.14109 10.6648 5.30853 9.51366 5.30853 8.32242C5.30417 7.94793 5.37423 7.57654 5.51432 7.23159C5.65441 6.88662 5.8615 6.57553 6.1226 6.31785C6.20138 6.22409 6.29818 6.14856 6.40672 6.09615C6.51529 6.04372 6.6332 6.01558 6.75286 6.01353C6.80487 6.01353 6.8559 6.01249 6.90625 6.01147C7.00505 6.00944 7.10128 6.00749 7.19754 6.01353C7.21665 6.01473 7.23649 6.01444 7.25699 6.01414C7.39223 6.01221 7.5555 6.00988 7.72275 6.43084C7.77017 6.55022 7.83428 6.7125 7.90482 6.89111C8.12072 7.43764 8.39698 8.137 8.44052 8.22766C8.47709 8.2913 8.49799 8.36337 8.50136 8.43745C8.5047 8.51152 8.49043 8.58531 8.45979 8.65226C8.40167 8.79827 8.3232 8.93458 8.22695 9.05682C8.18271 9.10972 8.13873 9.1647 8.09482 9.21961C8.02226 9.31029 7.94987 9.40086 7.87681 9.48141C7.87366 9.48487 7.87049 9.48833 7.86734 9.49179C7.75319 9.61753 7.64237 9.73945 7.77527 9.97526C8.12438 10.5983 8.5603 11.164 9.06906 11.6536C9.6179 12.163 10.2476 12.5694 10.9301 12.8545C11.1611 12.9766 11.2995 12.9566 11.4343 12.7944C11.5691 12.6322 12.012 12.0873 12.1696 11.845C12.3271 11.6026 12.4812 11.6409 12.6948 11.7229C12.9083 11.8049 14.0516 12.3917 14.2844 12.5119C14.3294 12.5353 14.3714 12.5562 14.4106 12.5757Z" fill="white"/>
</svg>
