<svg width="19" height="20" viewBox="0 0 19 20" fill="none" xmlns="http://www.w3.org/2000/svg">
<path fill-rule="evenodd" clip-rule="evenodd" d="M1.28292 14.5276L0 19.55L4.79689 18.2015C6.12165 18.9754 7.606 19.3814 9.11459 19.3823C11.1034 19.3822 13.0365 18.6782 14.6143 17.38C16.1922 16.0816 17.3265 14.2612 17.8416 12.2013C18.3568 10.1411 18.2237 7.95633 17.4633 5.98555C16.7029 4.01477 15.3575 2.36807 13.6355 1.30075C11.9137 0.233411 9.91169 -0.194929 7.93976 0.0821206C5.96787 0.35917 4.13626 1.32614 2.72888 2.83312C1.32151 4.34008 0.417004 6.30289 0.15558 8.41724C-0.105844 10.5316 0.290412 12.6794 1.28292 14.5276ZM13.356 11.7759C13.5144 11.8572 13.6216 11.9122 13.6668 11.9946C13.7229 12.0948 13.7348 12.5741 13.541 13.139C13.3473 13.704 12.445 14.2215 12.0118 14.2907C11.537 14.3773 11.0502 14.3441 10.5895 14.1942C10.152 14.0489 9.72206 13.8785 9.30151 13.6839C7.18884 12.7066 5.7606 10.5132 5.4856 10.091C5.46577 10.0606 5.45194 10.0392 5.44428 10.0283L5.44412 10.0281C5.32968 9.86503 4.5216 8.71386 4.5216 7.52262C4.51737 7.14813 4.58538 6.77673 4.72135 6.43179C4.85732 6.08682 5.05832 5.77573 5.31174 5.51805C5.3882 5.42429 5.48215 5.34875 5.5875 5.29634C5.69287 5.24392 5.80731 5.21578 5.92345 5.21372C5.97394 5.21372 6.02347 5.21268 6.07234 5.21166C6.16823 5.20964 6.26163 5.20769 6.35505 5.21372C6.37361 5.21492 6.39286 5.21463 6.41276 5.21434C6.54402 5.21241 6.70249 5.21008 6.86482 5.63103C6.91085 5.75042 6.97308 5.91269 7.04154 6.0913C7.25108 6.63784 7.51922 7.33719 7.56148 7.42786C7.59698 7.49149 7.61726 7.56356 7.62053 7.63764C7.62377 7.71172 7.60992 7.78551 7.58019 7.85246C7.52377 7.99846 7.44762 8.13477 7.35419 8.25702C7.31125 8.30992 7.26857 8.3649 7.22595 8.41981C7.15552 8.51048 7.08526 8.60106 7.01435 8.6816C7.01129 8.68506 7.00822 8.68853 7.00516 8.69199C6.89437 8.81773 6.78681 8.93964 6.9158 9.17545C7.25464 9.79851 7.67774 10.3642 8.17153 10.8538C8.70423 11.3632 9.31544 11.7695 9.97779 12.0547C10.2021 12.1768 10.3363 12.1568 10.4672 11.9946C10.598 11.8324 11.0279 11.2875 11.1808 11.0452C11.3338 10.8028 11.4833 10.8411 11.6906 10.9231C11.8979 11.0051 13.0075 11.5919 13.2335 11.7121C13.2772 11.7355 13.3179 11.7564 13.356 11.7759Z" fill="#E30613"/>
</svg>
